<?xml version="1.0" standalone="no"?><!DOCTYPE svg PUBLIC "-//W3C//DTD SVG 1.1//EN" "http://www.w3.org/Graphics/SVG/1.1/DTD/svg11.dtd"><svg t="1676296031038" class="icon" viewBox="0 0 1024 1024" version="1.1" xmlns="http://www.w3.org/2000/svg" p-id="10707" xmlns:xlink="http://www.w3.org/1999/xlink" width="200" height="200"><path d="M80 144m128 0l608 0q128 0 128 128l0 480q0 128-128 128l-608 0q-128 0-128-128l0-480q0-128 128-128Z" fill="#FFFFFF" p-id="10708"></path><path d="M128 193m112 0l576 0q112 0 112 112l0 447q0 112-112 112l-576 0q-112 0-112-112l0-447q0-112 112-112Z" fill="#A89BFA" p-id="10709"></path><path d="M816 896H208c-79.4 0-144-64.6-144-144V272c0-79.4 64.6-144 144-144h608c79.4 0 144 64.6 144 144v480c0 79.4-64.6 144-144 144zM208 160A112.12 112.12 0 0 0 96 272v480a112.12 112.12 0 0 0 112 112h608a112.12 112.12 0 0 0 112-112V272a112.12 112.12 0 0 0-112-112z" fill="#333333" p-id="10710"></path><path d="M352 416m-112 0a112 112 0 1 0 224 0 112 112 0 1 0-224 0Z" fill="#FFFFFF" p-id="10711"></path><path d="M368 432m-80 0a80 80 0 1 0 160 0 80 80 0 1 0-160 0Z" fill="#FFBF80" p-id="10712"></path><path d="M352 544a128 128 0 1 1 128-128 128.14 128.14 0 0 1-128 128z m0-224a96 96 0 1 0 96 96 96.11 96.11 0 0 0-96-96z" fill="#333333" p-id="10713"></path><path d="M528 670a167.6 167.6 0 0 0-56.48-125.64 160 160 0 0 1-231.42 8A167.43 167.43 0 0 0 192 670a66 66 0 0 0 66 66h204a66 66 0 0 0 66-66z" fill="#FFFFFF" p-id="10714"></path><path d="M528.64 681.13c0-29.5-6.79-51.78-21-72.53a32.08 32.08 0 0 0-43.26-9.27c-28.74 17.77-60.41 32.55-95.35 32.55-30.44 0-70.44-4.68-100.45-14.61a32 32 0 0 0-41.1 23.27c-2.8 12-3.51 25.46-3.51 40.59 0 21.87 15 39.23 32.84 39.23h212c25.2 0 59.84-17.36 59.84-39.23z" fill="#FFBF80" p-id="10715"></path><path d="M462 752H258a82.1 82.1 0 0 1-82-82 183 183 0 0 1 52.68-128.87 16 16 0 0 1 22.61-0.22 144 144 0 0 0 208.28-7.19 16 16 0 0 1 22.57-1.32A184.21 184.21 0 0 1 544 670a82.1 82.1 0 0 1-82 82zM241.41 574.92A150.92 150.92 0 0 0 208 670a50.06 50.06 0 0 0 50 50h204a50.06 50.06 0 0 0 50-50 152.19 152.19 0 0 0-40.27-103 176 176 0 0 1-230.32 7.95z" fill="#333333" p-id="10716"></path><path d="M592 384m32 0l160 0q32 0 32 32l0 0q0 32-32 32l-160 0q-32 0-32-32l0 0q0-32 32-32Z" fill="#333333" p-id="10717"></path><path d="M656 576m32 0l96 0q32 0 32 32l0 0q0 32-32 32l-96 0q-32 0-32-32l0 0q0-32 32-32Z" fill="#333333" p-id="10718"></path></svg>