<?xml version="1.0" standalone="no"?><!DOCTYPE svg PUBLIC "-//W3C//DTD SVG 1.1//EN" "http://www.w3.org/Graphics/SVG/1.1/DTD/svg11.dtd"><svg t="1675736985621" class="icon" viewBox="0 0 1024 1024" version="1.1" xmlns="http://www.w3.org/2000/svg" p-id="5499" xmlns:xlink="http://www.w3.org/1999/xlink" width="200" height="200"><path d="M512 512m-512 0a512 512 0 1 0 1024 0 512 512 0 1 0-1024 0Z" fill="#FFF3E8" p-id="5500" data-spm-anchor-id="a313x.7781069.0.i25" class="selected"></path><path d="M283.083625 310.665111m9.26021 0l172.558538 0q9.26021 0 9.26021 9.26021l0 172.558537q0 9.26021-9.26021 9.26021l-172.558538 0q-9.26021 0-9.26021-9.26021l0-172.558537q0-9.26021 9.26021-9.26021Z" fill="#F99057" p-id="5501" data-spm-anchor-id="a313x.7781069.0.i20" class=""></path><path d="M283.083625 550.235706m9.26021 0l172.558538 0q9.26021 0 9.26021 9.26021l0 172.558538q0 9.26021-9.26021 9.26021l-172.558538 0q-9.26021 0-9.26021-9.26021l0-172.558538q0-9.26021 9.26021-9.26021Z" fill="#F99057" p-id="5502" data-spm-anchor-id="a313x.7781069.0.i23" class=""></path><path d="M482.24115 406.181051m19.71428-19.71428l95.684666-95.684666q19.71428-19.71428 39.428561 0l95.684666 95.684666q19.71428 19.71428 0 39.42856l-95.684666 95.684667q-19.71428 19.71428-39.428561 0l-95.684666-95.684667q-19.71428-19.71428 0-39.42856Z" fill="#FFB65D" p-id="5503" data-spm-anchor-id="a313x.7781069.0.i22" class=""></path><path d="M521.857643 550.235706m9.26021 0l172.558538 0q9.26021 0 9.26021 9.26021l0 172.558538q0 9.26021-9.26021 9.26021l-172.558538 0q-9.26021 0-9.26021-9.26021l0-172.558538q0-9.26021 9.26021-9.26021Z" fill="#F99057" p-id="5504" data-spm-anchor-id="a313x.7781069.0.i24" class=""></path></svg>