<?xml version="1.0" standalone="no"?><!DOCTYPE svg PUBLIC "-//W3C//DTD SVG 1.1//EN" "http://www.w3.org/Graphics/SVG/1.1/DTD/svg11.dtd"><svg t="1675757055263" class="icon" viewBox="0 0 1024 1024" version="1.1" xmlns="http://www.w3.org/2000/svg" p-id="40370" data-spm-anchor-id="a313x.7781069.0.i37" xmlns:xlink="http://www.w3.org/1999/xlink" width="200" height="200"><path d="M512 128a384 384 0 1 1 0 768 384 384 0 0 1 0-768z m244.608 225.066667a37.973333 37.973333 0 0 0-54.826667 0l-267.562666 275.626666-112-115.370666a37.973333 37.973333 0 0 0-54.826667 0 40.746667 40.746667 0 0 0 0 56.448l139.605333 143.829333a37.973333 37.973333 0 0 0 54.826667 0l294.826667-304.042667a40.746667 40.746667 0 0 0 0-56.490666z" fill="#FF9A2E" p-id="40371" data-spm-anchor-id="a313x.7781069.0.i35" class=""></path></svg>