<?xml version="1.0" standalone="no"?><!DOCTYPE svg PUBLIC "-//W3C//DTD SVG 1.1//EN" "http://www.w3.org/Graphics/SVG/1.1/DTD/svg11.dtd"><svg t="1677052672428" class="icon" viewBox="0 0 1837 1024" version="1.1" xmlns="http://www.w3.org/2000/svg" p-id="655" xmlns:xlink="http://www.w3.org/1999/xlink" width="358.7890625" height="200"><path d="M503.017544 321.37232 31.937622 321.37232c-17.565692 0-31.937622 14.37193-31.937622 31.937622 0 17.565692 14.37193 31.937622 31.937622 31.937622l471.079922 0c17.565692 0 31.937622-14.37193 31.937622-31.937622C534.955166 335.74425 520.583236 321.37232 503.017544 321.37232z" fill="#FFCC22" p-id="656"></path><path d="M503.017544 560.904483 191.625731 560.904483c-17.565692 0-31.937622 14.37193-31.937622 31.937622 0 17.565692 14.37193 31.937622 31.937622 31.937622l311.391813 0c17.565692 0 31.937622-14.37193 31.937622-31.937622C534.955166 575.276413 520.583236 560.904483 503.017544 560.904483z" fill="#FFCC22" p-id="657"></path><path d="M503.017544 800.436647l-143.719298 0c-17.565692 0-31.937622 14.37193-31.937622 31.937622s14.37193 31.937622 31.937622 31.937622l143.719298 0c17.565692 0 31.937622-14.37193 31.937622-31.937622S520.583236 800.436647 503.017544 800.436647z" fill="#FFCC22" p-id="658"></path><path d="M1836.413255 476.269786c-1.596881-11.178168-6.387524-27.146979-12.775049-27.146979l0 0-1.596881-3.193762c-3.193762-4.790643-6.387524-9.581287-11.178168-12.775049l-124.556725-121.362963L1644.787524 353.309942l67.069006 63.875244-1.596881 0 54.293957 55.890838L1521.82768 687.05809l-135.734893-121.362963c-38.325146-28.74386-91.022222-30.340741-130.94425 1.596881l-124.556725 114.975439L889.462768 473.076023l27.146979-23.953216 1.596881 0L1304.651852 77.049513C1311.039376 70.661988 1319.023782 65.871345 1327.008187 65.871345c7.984405 0 15.968811 1.596881 22.356335 7.984405l108.587914 102.20039 46.309552-41.518908-110.184795-106.991033c-36.728265-36.728265-99.006628-36.728265-135.734893 0l-416.785965 399.220273C833.57193 436.347758 814.409357 458.704094 814.409357 481.060429l0 479.064327c0 35.131384 28.74386 63.875244 63.875244 63.875244l894.253411 0c35.131384 0 63.875244-28.74386 63.875244-63.875244L1836.413255 482.65731C1836.413255 479.463548 1836.413255 479.463548 1836.413255 476.269786zM878.2846 544.935673l205.997661 182.044444L878.2846 915.412086 878.2846 544.935673zM924.594152 960.124756 1149.754386 752.530214c1.596881-1.596881 4.790643-3.193762 6.387524-4.790643 0 0 0-1.596881 1.596881-1.596881l140.525536-129.347368c7.984405-6.387524 15.968811-9.581287 25.550097-9.581287 9.581287 0 17.565692 3.193762 23.953216 7.984405l383.251462 344.926316L924.594152 960.124756zM1772.538012 912.218324 1569.734113 730.173879 1772.538012 551.323197 1772.538012 912.218324z" fill="#FFCC22" p-id="659"></path><path d="M1357.348928 289.434698c-79.844055 0-143.719298 63.875244-143.719298 143.719298 0 27.146979 7.984405 52.697076 20.759454 75.053411l20.759454-19.162573c6.387524-6.387524 14.37193-9.581287 22.356335-12.775049 0-3.193762-1.596881-6.387524-1.596881-9.581287 0-27.146979 20.759454-47.906433 47.906433-47.906433 27.146979 0 47.906433 20.759454 47.906433 47.906433 0 4.790643 0 7.984405-1.596881 11.178168 4.790643 3.193762 11.178168 6.387524 15.968811 9.581287l62.278363 55.890838c31.937622-27.146979 51.100195-65.472125 51.100195-110.184795 0-4.790643-1.596881-9.581287-1.596881-14.37193 38.325146-38.325146 97.409747-97.409747 97.409747-97.409747 0 0-31.937622-31.937622 0-63.875244 30.340741-30.340741 59.0846 0 63.875244 0l0 0c0-44.712671 0-127.750487 0-127.750487s-31.937622 0-63.875244 0L1402.061598 297.419103C1387.689669 292.62846 1373.317739 289.434698 1357.348928 289.434698z" fill="#FFAA00" p-id="660"></path></svg>