<?xml version="1.0" standalone="no"?><!DOCTYPE svg PUBLIC "-//W3C//DTD SVG 1.1//EN" "http://www.w3.org/Graphics/SVG/1.1/DTD/svg11.dtd"><svg t="1675742492455" class="icon" viewBox="0 0 1024 1024" version="1.1" xmlns="http://www.w3.org/2000/svg" p-id="3239" xmlns:xlink="http://www.w3.org/1999/xlink" width="200" height="200"><path d="M237.056 144.1792h314.9312c74.8544 0 135.5264 60.672 135.5264 135.5264v220.7744c0 74.8544-60.672 135.5264-135.5264 135.5264H323.3792l-117.504 96.3584c-12.032 9.8816-30.1568 1.3312-30.1568-14.2848v-96.768c-44.032-22.3744-74.24-68.096-74.24-120.8832V279.7056c0-74.8544 60.7232-135.5264 135.5776-135.5264z" fill="#EF8F9F" p-id="3240"></path><path d="M516.7104 151.8592s80.2816 35.072 80.2816 85.9648c51.456 0 92.16-4.5056 96.6656 0 4.5568 4.4544-35.0208-99.584-176.9472-85.9648z" fill="#E06C85" p-id="3241"></path><path d="M194.304 757.1456c-5.632 0-11.3664-1.2288-16.7424-3.7888a38.6048 38.6048 0 0 1-22.272-35.1744V633.344c-46.08-28.3136-74.24-78.1312-74.24-132.864V279.7056c0-86.016 69.9904-156.0064 156.0064-156.0064h314.9312c86.016 0 156.0064 69.9904 156.0064 156.0064v220.7744c0 86.016-69.9904 156.0064-156.0064 156.0064H330.7008l-111.8208 91.7504a38.62016 38.62016 0 0 1-24.576 8.9088zM237.056 164.6592c-63.4368 0-115.0464 51.6096-115.0464 115.0464v220.7744c0 43.52 24.1664 82.8928 63.0272 102.6048 6.8608 3.4816 11.2128 10.5472 11.2128 18.2784v92.4672l114.176-93.6448c3.6864-3.0208 8.2432-4.6592 13.0048-4.6592h228.608c63.4368 0 115.0464-51.6096 115.0464-115.0464V279.7056c0-63.4368-51.6096-115.0464-115.0464-115.0464H237.056z" fill="#211D38" p-id="3242"></path><path d="M780.3904 240.8448H440.2688c-80.8448 0-146.3808 65.536-146.3808 146.3808v238.3872c0 80.8448 65.536 146.3808 146.3808 146.3808h246.8864l126.8736 104.0896c13.0048 10.6496 32.5632 1.4336 32.5632-15.4112v-104.4992c47.5648-24.1664 80.1792-73.5232 80.1792-130.56V387.2256c0-80.8448-65.536-146.3808-146.3808-146.3808z" fill="#F3556E" p-id="3243"></path><path d="M763.8016 253.0304s101.7856 35.072 101.7856 130.048v200.1408c0 52.48-8.3968 106.752-61.3376 123.6992-12.4928 3.9936-21.1968 15.3088-21.1968 28.416v37.888l-70.3488-54.784a29.7472 29.7472 0 0 0-18.2272-6.2464H442.3168c-44.0832 0-125.9008-16.5888-139.1104-79.5136 0.768 39.936 23.7568 143.616 144.384 143.616h253.2864l124.7744 104.8064 14.336-2.6624 14.336-122.5216s73.1136-60.672 73.1136-138.7008V355.9936c0-33.1776-44.1344-119.1424-163.6352-102.9632z" fill="#D6283F" p-id="3244"></path><path d="M826.5728 901.12c-9.1136 0-18.1248-3.1232-25.5488-9.216l-121.2416-99.4304H440.2688c-92.0064 0-166.8608-74.8544-166.8608-166.8608V387.2256c0-92.0064 74.8544-166.8608 166.8608-166.8608h340.1216c92.0064 0 166.8608 74.8544 166.8608 166.8608v238.4384c0 58.8288-30.4128 112.384-80.1792 142.592v92.4672c0 15.7696-8.8576 29.7472-23.1424 36.5056-5.5296 2.6112-11.4688 3.8912-17.3568 3.8912zM440.2688 261.3248c-69.4272 0-125.9008 56.4736-125.9008 125.9008v238.4384c0 69.4272 56.4736 125.9008 125.9008 125.9008h246.8864c4.7104 0 9.3184 1.6384 13.0048 4.6592l125.952 103.3216V756.224c0-7.7312 4.352-14.7456 11.2128-18.2784 42.5472-21.6064 68.9664-64.6656 68.9664-112.2816V387.2256c0-69.4272-56.4736-125.9008-125.9008-125.9008H440.2688z" fill="#211D38" p-id="3245"></path><path d="M477.952 507.7504m-37.6832 0a37.6832 37.6832 0 1 0 75.3664 0 37.6832 37.6832 0 1 0-75.3664 0Z" fill="#FFFFFF" p-id="3246"></path><path d="M609.792 507.7504m-37.6832 0a37.6832 37.6832 0 1 0 75.3664 0 37.6832 37.6832 0 1 0-75.3664 0Z" fill="#FFFFFF" p-id="3247"></path><path d="M743.8336 507.7504m-37.6832 0a37.6832 37.6832 0 1 0 75.3664 0 37.6832 37.6832 0 1 0-75.3664 0Z" fill="#FFFFFF" p-id="3248"></path><path d="M328.0896 583.168a12.8 12.8 0 0 1-12.8-12.8V384c0-56.1152 37.888-104.96 92.16-118.8352 6.8096-1.792 13.824 2.3552 15.5648 9.216 1.7408 6.8608-2.3552 13.824-9.216 15.5648A96.9728 96.9728 0 0 0 340.8896 384v186.3168c0 7.1168-5.7344 12.8512-12.8 12.8512zM481.4848 286.976h-23.3472a12.8 12.8 0 0 1 0-25.6h23.3472a12.8 12.8 0 0 1 0 25.6zM134.5536 481.3824a12.8 12.8 0 0 1-12.8-12.8V284.3648c0-55.5008 37.3248-103.8848 90.7264-117.6064a12.8 12.8 0 0 1 6.3488 24.7808c-42.0864 10.8544-71.4752 48.9984-71.4752 92.8256v184.2176c0 7.0656-5.6832 12.8-12.8 12.8zM285.2864 188.5696h-22.9376a12.8 12.8 0 0 1 0-25.6h22.9376a12.8 12.8 0 0 1 0 25.6z" fill="#FFFFFF" p-id="3249"></path><path d="M230.6048 926.8224c-38.5536 0-69.9392-31.3856-69.9392-69.9392s31.3856-69.9392 69.9392-69.9392 69.9392 31.3856 69.9392 69.9392-31.3856 69.9392-69.9392 69.9392z m0-104.0384c-18.7904 0-34.0992 15.3088-34.0992 34.0992s15.3088 34.0992 34.0992 34.0992 34.0992-15.3088 34.0992-34.0992-15.3088-34.0992-34.0992-34.0992z" fill="#E2E5F1" p-id="3250"></path><path d="M830.3104 157.696m-34.6624 0a34.6624 34.6624 0 1 0 69.3248 0 34.6624 34.6624 0 1 0-69.3248 0Z" fill="#E2E5F1" p-id="3251"></path><path d="M725.2992 892.6208H629.248c-8.4992 0-15.36-6.8608-15.36-15.36s6.8608-15.36 15.36-15.36h96.0512c8.4992 0 15.36 6.8608 15.36 15.36s-6.8608 15.36-15.36 15.36z" fill="#E2E5F1" p-id="3252"></path><path d="M579.6352 878.3872m-17.3568 0a17.3568 17.3568 0 1 0 34.7136 0 17.3568 17.3568 0 1 0-34.7136 0Z" fill="#E2E5F1" p-id="3253"></path></svg>