<?xml version="1.0" standalone="no"?><!DOCTYPE svg PUBLIC "-//W3C//DTD SVG 1.1//EN" "http://www.w3.org/Graphics/SVG/1.1/DTD/svg11.dtd"><svg t="1676885973606" class="icon" viewBox="0 0 1024 1024" version="1.1" xmlns="http://www.w3.org/2000/svg" p-id="10355" xmlns:xlink="http://www.w3.org/1999/xlink" width="200" height="200"><path d="M811.776 459.5712L474.112 804.608l42.752 119.2448c9.8304 26.5728 39.7824 39.5776 65.9456 28.672l305.2544-127.488c24.1664-10.0864 36.4032-37.1712 28.0064-62.0032l-104.2944-303.4624z" fill="#6D5CF4" p-id="10356"></path><path d="M778.2912 484.4032l-274.8416 280.7808 42.5984 121.088c7.9872 21.6064 32.4096 32.2048 53.6576 23.3472l248.4224-103.7312a40.53504 40.53504 0 0 0 22.784-50.432l-92.6208-271.0528z" fill="#756AF6" p-id="10357"></path><path d="M752.4352 516.864l-216.2176 220.928 39.3728 110.6432c6.2976 16.9984 25.4976 25.344 42.24 18.3808l195.4816-81.6128a31.91808 31.91808 0 0 0 17.92-39.68l-78.7968-228.6592z" fill="#7A77FC" p-id="10358"></path><path d="M725.2992 525.8752l-163.6352 167.168 39.9872 120.2688c4.7616 12.8512 19.3024 19.2 31.9488 13.8752l147.9168-61.7472a24.14592 24.14592 0 0 0 13.568-30.0544l-69.7856-209.5104z" fill="#9494F2" p-id="10359"></path><path d="M87.7056 642.7136l239.2064 235.008c26.7776 26.3168 69.8368 25.9072 96.1024-0.8704l404.0192-411.4944c15.7184-16.0256 22.528-38.8096 18.176-60.8256l-38.9632-196.352a67.98848 67.98848 0 0 0-56.1152-53.9136L550.2464 122.88c-21.4528-3.3792-43.2128 3.7376-58.5728 19.0464l-404.3776 404.224c-26.7264 26.7264-26.5216 70.0928 0.4096 96.5632z" fill="#6D5CF4" p-id="10360"></path><path d="M750.1312 154.2656L550.2464 122.88c-21.4528-3.3792-43.2128 3.7376-58.5728 19.0464l-404.3776 404.224a67.9936 67.9936 0 0 0-15.2576 23.3472c1.1264 1.3824 2.304 2.6624 3.6352 3.9424l263.2192 258.6112c20.1728 19.8144 52.6336 19.5584 72.448-0.6656l421.9392-429.7216c3.6352-3.7376 6.6048-7.9872 8.9088-12.4928l-35.8912-180.992a68.10624 68.10624 0 0 0-56.1664-53.9136z" fill="#756AF6" p-id="10361"></path><path d="M806.2464 208.1792a67.98848 67.98848 0 0 0-56.1152-53.9136L550.2464 122.88c-21.4528-3.3792-43.2128 3.7376-58.5728 19.0464l-390.5536 390.4512L353.28 780.1344a31.05792 31.05792 0 0 0 43.9296-0.4096l434.6368-442.6752-25.6-128.8704z" fill="#7A77FC" p-id="10362"></path><path d="M188.416 530.176l183.4496 178.0224a22.26688 22.26688 0 0 0 31.5392-0.3072l371.5584-368.0768a22.16448 22.16448 0 0 0 5.9392-19.968l-28.6208-107.5712a22.4 22.4 0 0 0-18.432-17.7152l-188.6208-35.6864c-7.0656-1.1264-14.1824 1.2288-19.2512 6.2464l-337.8176 333.312a22.46656 22.46656 0 0 0 0.256 31.744z" fill="#8F89FB" p-id="10363"></path><path d="M648.3968 193.1264c-66.6112 0-120.7808 54.1696-120.7808 120.7808s54.1696 120.7808 120.7808 120.7808 120.7808-54.1696 120.7808-120.7808c0-66.56-54.1696-120.7808-120.7808-120.7808z m29.6448 120.832c0 16.3328-13.312 29.6448-29.6448 29.6448s-29.6448-13.312-29.6448-29.6448 13.312-29.6448 29.6448-29.6448 29.6448 13.312 29.6448 29.6448z" fill="#756AF6" p-id="10364"></path><path d="M648.3968 416.768c-56.6784 0-102.8096-46.1312-102.8096-102.8096 0-56.6784 46.1312-102.8096 102.8096-102.8096 56.6784 0 102.8096 46.1312 102.8096 102.8096 0 56.6784-46.1312 102.8096-102.8096 102.8096z m0-140.8c-20.9408 0-37.9904 17.0496-37.9904 37.9904s17.0496 37.9904 37.9904 37.9904 37.9904-17.0496 37.9904-37.9904-17.0496-37.9904-37.9904-37.9904z" fill="#FF8F33" p-id="10365"></path><path d="M648.3968 402.9952c-49.1008 0-89.0368-39.936-89.0368-89.0368s39.936-89.0368 89.0368-89.0368 89.0368 39.936 89.0368 89.0368-39.936 89.0368-89.0368 89.0368z m0-142.2848c-29.3376 0-53.1968 23.8592-53.1968 53.1968s23.8592 53.1968 53.1968 53.1968 53.1968-23.8592 53.1968-53.1968-23.8592-53.1968-53.1968-53.1968z" fill="#FFBF4D" p-id="10366"></path><path d="M648.3968 395.3152c-44.8512 0-81.3568-36.5056-81.3568-81.3568 0-35.5328 22.7328-66.7136 56.576-77.5168 5.376-1.6896 11.1616 1.2288 12.8512 6.656 1.7408 5.376-1.2288 11.1616-6.656 12.8512a60.6464 60.6464 0 0 0-42.3424 58.0096c0 33.5872 27.2896 60.8768 60.8768 60.8768 16.9472 0 32.7168-6.8096 44.3392-19.1488 3.8912-4.096 10.3424-4.3008 14.4896-0.4096 4.096 3.8912 4.3008 10.3424 0.4096 14.4896-15.2576 16.2304-36.864 25.5488-59.1872 25.5488zM692.6848 268.544c-2.2528 0-4.5056-0.7168-6.4-2.2528a59.99616 59.99616 0 0 0-21.6576-11.0592 10.2912 10.2912 0 0 1-7.168-12.5952 10.2912 10.2912 0 0 1 12.5952-7.168c10.5984 2.9184 20.3776 7.8848 28.9792 14.7968 4.4032 3.5328 5.12 9.984 1.6384 14.3872-1.9968 2.56-4.9664 3.8912-7.9872 3.8912z" fill="#FFE2B3" p-id="10367"></path><path d="M648.3968 342.784c-15.9232 0-28.8256-12.9024-28.8256-28.8256s12.9024-28.8256 28.8256-28.8256c103.424 0 181.9136-62.1568 182.6816-62.8224 12.3904-9.984 30.5152-7.9872 40.4992 4.4032 9.984 12.3904 8.0384 30.5664-4.4032 40.4992-3.7888 3.1232-95.2832 75.5712-218.7776 75.5712zM905.1648 205.9264c-5.5808 0-11.2128-1.6384-16.1792-4.9664a28.82048 28.82048 0 0 1-7.6288-40.0384c10.8544-15.9744 16.64-52.736 17.7152-68.0448 1.1264-15.872 14.7968-27.904 30.7712-26.7264a28.8256 28.8256 0 0 1 26.7264 30.7712c-0.4608 6.4-5.0688 63.3344-27.5456 96.4096a28.80512 28.80512 0 0 1-23.8592 12.5952z" fill="#FF8F33" p-id="10368"></path><path d="M648.3968 334.1312c-11.1616 0-20.1728-9.0112-20.1728-20.1728s9.0112-20.1728 20.1728-20.1728c105.8816 0 187.3408-64.1024 188.16-64.7168a20.224 20.224 0 0 1 28.3648 3.1232 20.15232 20.15232 0 0 1-3.072 28.3136c-3.7888 3.0208-92.9792 73.6256-213.4528 73.6256zM905.1648 197.2736c-3.8912 0-7.8336-1.1264-11.3152-3.4816a20.11136 20.11136 0 0 1-5.3248-28.0064c12.8-18.8416 18.176-58.5728 19.2-72.2944 0.8192-11.1104 10.4448-19.456 21.5552-18.688 11.1104 0.8192 19.456 10.4448 18.688 21.5552-0.4096 6.144-4.864 60.928-26.0608 92.16a20.352 20.352 0 0 1-16.7424 8.7552z" fill="#FFBF4D" p-id="10369"></path><path d="M904.3968 187.904a10.25536 10.25536 0 0 1-8.0384-16.5888c18.944-23.9104 21.9648-77.0048 21.9648-77.5168 0.3072-5.632 5.3248-9.984 10.752-9.6768a10.24 10.24 0 0 1 9.6768 10.752c-0.1024 2.4576-3.3792 60.16-26.368 89.1904-1.9968 2.5088-4.9664 3.84-7.9872 3.84zM648.3968 324.1984a10.24 10.24 0 1 1-0.1024-20.48c117.4016-1.4336 194.304-65.9968 195.072-66.6624 4.3008-3.6864 10.752-3.1744 14.4384 1.1264s3.1744 10.752-1.1264 14.4384c-3.328 2.8672-83.4048 70.0416-208.128 71.5776h-0.1536z" fill="#FFE2B3" p-id="10370"></path><path d="M296.1408 544.7168c-9.3696 0-18.7392-3.6352-25.7536-10.9056a35.84 35.84 0 0 1 0.8192-50.688l134.5024-130.304a35.84 35.84 0 0 1 50.688 0.8192 35.84 35.84 0 0 1-0.8192 50.688l-134.5024 130.304a35.6864 35.6864 0 0 1-24.9344 10.0864z" fill="#BDBDFF" p-id="10371"></path></svg>