<?xml version="1.0" standalone="no"?><!DOCTYPE svg PUBLIC "-//W3C//DTD SVG 1.1//EN" "http://www.w3.org/Graphics/SVG/1.1/DTD/svg11.dtd"><svg t="1676295960914" class="icon" viewBox="0 0 1024 1024" version="1.1" xmlns="http://www.w3.org/2000/svg" p-id="6914" xmlns:xlink="http://www.w3.org/1999/xlink" width="200" height="200"><path d="M889.998222 181.134222h-128.853333a96.711111 96.711111 0 0 0-94.435556-94.890666A96.711111 96.711111 0 0 0 570.908444 0H453.148444a96.711111 96.711111 0 0 0-95.800888 86.243556 96.711111 96.711111 0 0 0-94.435556 94.890666H134.058667A94.492444 94.492444 0 0 0 39.850667 275.626667v653.880889A94.492444 94.492444 0 0 0 134.058667 1024h755.939555a94.492444 94.492444 0 0 0 94.208-94.492444V275.626667a94.492444 94.492444 0 0 0-94.208-94.492445zM329.528889 247.808V182.556444v-1.422222a29.696 29.696 0 0 1 29.639111-28.444444h30.947556A33.336889 33.336889 0 0 0 423.509333 119.466667v-23.153778a29.696 29.696 0 0 1 29.639111-29.639111h117.76a29.696 29.696 0 0 1 29.639112 29.639111V119.466667a33.336889 33.336889 0 0 0 33.336888 33.336889h30.947556a29.696 29.696 0 0 1 29.639111 28.444444v77.994667a29.696 29.696 0 0 1-29.639111 29.639111H359.224889a29.696 29.696 0 0 1-29.639111-29.639111z m588.231111 681.699556a27.875556 27.875556 0 0 1-27.818667 27.818666H134.058667a27.875556 27.875556 0 0 1-27.818667-27.818666V275.626667a27.875556 27.875556 0 0 1 27.818667-27.818667h128.796444v11.377778A96.711111 96.711111 0 0 0 359.224889 355.555556h305.664a96.711111 96.711111 0 0 0 96.312889-96.312889v-11.377778h128.796444a27.875556 27.875556 0 0 1 27.818667 27.818667v653.824z" fill="#343399" p-id="6915"></path><path d="M657.095111 842.865778V678.684444h98.872889v164.124445z m-194.503111 0V474.908444h98.872889v367.900445z m-194.503111 0V591.644444h98.872889v251.505778z" fill="#F59D0D" p-id="6916"></path></svg>