<?xml version="1.0" standalone="no"?><!DOCTYPE svg PUBLIC "-//W3C//DTD SVG 1.1//EN" "http://www.w3.org/Graphics/SVG/1.1/DTD/svg11.dtd"><svg t="1675737154732" class="icon" viewBox="0 0 1024 1024" version="1.1" xmlns="http://www.w3.org/2000/svg" p-id="6338" xmlns:xlink="http://www.w3.org/1999/xlink" width="200" height="200"><path d="M1024 426.666667H0V213.333333a128 128 0 0 1 128-128h768a128 128 0 0 1 128 128zM85.333333 341.333333h853.333334v-128a42.666667 42.666667 0 0 0-42.666667-42.666666H128a42.666667 42.666667 0 0 0-42.666667 42.666666z" fill="#14C9C9" p-id="6339"></path><path d="M896 1024H128a128 128 0 0 1-128-128V341.333333h1024v554.666667a128 128 0 0 1-128 128zM85.333333 426.666667v469.333333a42.666667 42.666667 0 0 0 42.666667 42.666667h768a42.666667 42.666667 0 0 0 42.666667-42.666667V426.666667zM298.666667 298.666667a42.666667 42.666667 0 0 1-42.666667-42.666667V42.666667a42.666667 42.666667 0 0 1 85.333333 0v213.333333a42.666667 42.666667 0 0 1-42.666666 42.666667zM725.333333 298.666667a42.666667 42.666667 0 0 1-42.666666-42.666667V42.666667a42.666667 42.666667 0 0 1 85.333333 0v213.333333a42.666667 42.666667 0 0 1-42.666667 42.666667z" fill="#14C9C9" p-id="6340"></path><path d="M544.64 579.84H384V512h256v49.493333c-85.333333 94.08-95.36 158.293333-101.973333 291.84H448c7.253333-112.426667 26.453333-184.32 96.64-273.493333z" fill="#14C9C9" p-id="6341"></path></svg>