<?xml version="1.0" standalone="no"?><!DOCTYPE svg PUBLIC "-//W3C//DTD SVG 1.1//EN" "http://www.w3.org/Graphics/SVG/1.1/DTD/svg11.dtd"><svg t="1675738624500" class="icon" viewBox="0 0 1024 1024" version="1.1" xmlns="http://www.w3.org/2000/svg" p-id="7864" xmlns:xlink="http://www.w3.org/1999/xlink" width="200" height="200"><path d="M482.56 97.6896c-23.296-7.2192-47.2576 8.5504-50.3296 32.768-6.8608 53.9648-52.5824 130.816-130.6624 211.1488-23.6544 24.3712-49.7152 46.3872-76.4416 67.328-62.7712 49.152-107.52 126.976-107.52 224.512 0 108.6976 68.864 291.9424 407.8592 291.9424s388.0448-221.184 388.0448-291.9424c0-65.024-14.1824-197.9904-120.4736-274.1248-14.6432-10.496-35.4304-5.5808-43.8272 10.3936-9.472 18.0224-22.3232 34.1504-53.6064 53.4016-8.2944 5.12-18.688-2.048-16.7424-11.6224 17.664-85.9648 16.64-247.6544-196.3008-313.8048z" fill="#EB4446" opacity=".4" p-id="7865"></path><path d="M558.2848 784.384c55.6544-5.4784 97.8944-52.736 94.208-107.1104-0.1536-2.2016-0.3584-4.352-0.6144-6.4-5.9392-42.8544-26.2144-73.5744-74.7008-116.0704-36.864-32.3072-34.2016-91.4944-29.1328-124.7744 1.6896-11.1104-8.7552-19.968-18.944-16.0256-52.8896 20.6336-175.8208 80.3328-183.296 192.6144-3.2256 48.384 11.3664 90.8288 32.1536 125.7984 16.384 27.5456 44.9024 46.336 77.3632 50.3808 18.5856 2.304 38.8096 3.5328 60.8256 3.5328 14.8992 0.0512 28.928-0.6656 42.1376-1.9456z" fill="#EB4446" p-id="7866"></path></svg>