<?xml version="1.0" standalone="no"?><!DOCTYPE svg PUBLIC "-//W3C//DTD SVG 1.1//EN" "http://www.w3.org/Graphics/SVG/1.1/DTD/svg11.dtd"><svg t="1676091811506" class="icon" viewBox="0 0 1024 1024" version="1.1" xmlns="http://www.w3.org/2000/svg" p-id="1522" xmlns:xlink="http://www.w3.org/1999/xlink" width="200" height="200"><path d="M0 0h1024v1024H0V0z" fill="#202425" opacity=".01" p-id="1523"></path><path d="M102.4 136.533333a68.266667 68.266667 0 0 1 68.266667-68.266666h682.666666a68.266667 68.266667 0 0 1 68.266667 68.266666v34.133334a34.133333 34.133333 0 0 1-34.133333 34.133333H136.533333a34.133333 34.133333 0 0 1-34.133333-34.133333V136.533333z" fill="#FFAA44" p-id="1524"></path><path d="M102.4 238.933333a68.266667 68.266667 0 0 0-68.266667 68.266667v409.6a136.533333 136.533333 0 0 0 136.533334 136.533333h204.8l112.401066 112.401067a34.133333 34.133333 0 0 0 48.264534 0L648.533333 853.333333h204.8a136.533333 136.533333 0 0 0 136.533334-136.533333V307.2a68.266667 68.266667 0 0 0-68.266667-68.266667H102.4z" fill="#FF7744" p-id="1525"></path><path d="M238.933333 477.866667a68.266667 68.266667 0 1 1 0 136.533333 68.266667 68.266667 0 0 1 0-136.533333z m273.066667 0a68.266667 68.266667 0 1 1 0 136.533333 68.266667 68.266667 0 0 1 0-136.533333z m273.066667 0a68.266667 68.266667 0 1 1 0 136.533333 68.266667 68.266667 0 0 1 0-136.533333z" fill="#FFFFFF" p-id="1526"></path></svg>