<?xml version="1.0" standalone="no"?><!DOCTYPE svg PUBLIC "-//W3C//DTD SVG 1.1//EN" "http://www.w3.org/Graphics/SVG/1.1/DTD/svg11.dtd"><svg t="1675755064641" class="icon" viewBox="0 0 1024 1024" version="1.1" xmlns="http://www.w3.org/2000/svg" p-id="1392" xmlns:xlink="http://www.w3.org/1999/xlink" width="200" height="200"><path d="M179.2 614.4c0-56.558933 45.841067-102.4 102.4-102.4s102.4 45.841067 102.4 102.4c0 56.558933-45.841067 102.4-102.4 102.4S179.2 670.958933 179.2 614.4zM918.755556 227.555556l0 182.044444c0 62.839467-50.938311 113.777778-113.777778 113.777778L621.249422 523.377778c-30.560711 44.635022-95.0272 56.888889-95.0272 56.888889l14.222222-56.888889-2.844444 0c-62.839467 0-113.777778-50.938311-113.777778-113.777778L423.822222 227.555556c0-62.839467 50.938311-113.777778 113.777778-113.777778l267.377778 0C867.817244 113.777778 918.755556 164.716089 918.755556 227.555556zM685.056 403.456l-41.972622 0L643.083378 443.733333l41.972622 0L685.056 403.456zM744.448 260.790044c0-40.277333-35.828622-64.170667-74.410667-64.170667-40.607289 0-64.170667 24.564622-64.170667 24.564622l23.904711 29.696c0 0 17.066667-14.336 36.511289-14.336 18.773333 0 33.109333 12.288 33.109333 28.319289 0 35.157333-56.308622 43.008-56.308622 92.501333l0 16.384 41.972622 0 0-13.312C685.056 323.584 744.448 317.098667 744.448 260.790044zM327.111111 750.933333l-91.022222 0c-62.839467 0-113.777778 50.938311-113.777778 113.777778l0 45.511111 318.577778 0 0-45.511111C440.888889 801.871644 389.950578 750.933333 327.111111 750.933333z" p-id="1393" fill="#F99057"></path></svg>