<?xml version="1.0" standalone="no"?><!DOCTYPE svg PUBLIC "-//W3C//DTD SVG 1.1//EN" "http://www.w3.org/Graphics/SVG/1.1/DTD/svg11.dtd"><svg t="1676092382687" class="icon" viewBox="0 0 1024 1024" version="1.1" xmlns="http://www.w3.org/2000/svg" p-id="2135" id="mx_n_1676092382687" xmlns:xlink="http://www.w3.org/1999/xlink" width="200" height="200"><path d="M65.11 511.24a446.89 446.89 0 1 0 893.78 0 446.89 446.89 0 1 0-893.78 0z" fill="#F4F9FC" p-id="2136"></path><path d="M763.34 688.24c-5.45-35.72-68.45-43.18-69.52-67.67-1.08-24.49 5.32-152.15 5.32-152.15 3.6-100.19-65.26-155.02-135.95-180.07 0.08-0.27 0-0.72-0.08-1.18 0.01-0.51 0.08-1 0.08-1.52 0-28.33-22.98-51.31-51.32-51.31s-51.32 22.98-51.32 51.32c0 0.52 0.06 1.01 0.08 1.52-0.08 0.47-0.15 0.91-0.08 1.18-70.7 25.05-139.56 79.87-135.95 180.07 0 0 6.4 127.66 5.32 152.15-1.08 24.49-64.08 31.95-69.52 67.67-3.55 13.78 12.35 27.57 27.59 27.57h161.48c-0.37 2.81-0.64 5.65-0.64 8.56 0 34.83 28.22 63.09 63.05 63.13 34.82-0.04 63.05-28.3 63.05-63.13 0-2.9-0.27-5.75-0.64-8.56h161.49c15.2 0 31.1-13.8 27.56-27.58z m0 0" fill="#F99057" p-id="2137" data-spm-anchor-id="a313x.7781069.0.i10" class=""></path><path d="M559.887 421.552a157.58 157.58 0 1 0 222.848-222.856 157.58 157.58 0 1 0-222.848 222.856z" fill="#CB272D" p-id="2138" data-spm-anchor-id="a313x.7781069.0.i12" class=""></path><path d="M671.32 184.06c69.62 0 126.06 56.44 126.06 126.06s-56.44 126.06-126.06 126.06-126.06-56.44-126.06-126.06 56.44-126.06 126.06-126.06m0-63.03c-25.5 0-50.27 5.01-73.62 14.89-22.52 9.53-42.74 23.15-60.09 40.5s-30.97 37.56-40.5 60.09c-9.88 23.35-14.89 48.12-14.89 73.62s5.01 50.27 14.89 73.62c9.53 22.52 23.15 42.74 40.5 60.09s37.56 30.97 60.09 40.5c23.35 9.88 48.12 14.89 73.62 14.89 25.5 0 50.27-5.01 73.62-14.89 22.52-9.53 42.74-23.15 60.09-40.5s30.97-37.56 40.5-60.09c9.88-23.35 14.89-48.12 14.89-73.62s-5.01-50.27-14.89-73.62c-9.53-22.52-23.15-42.74-40.5-60.09s-37.56-30.97-60.09-40.5c-23.35-9.88-48.12-14.89-73.62-14.89z" fill="#FFF3E8" p-id="2139" data-spm-anchor-id="a313x.7781069.0.i11" class="selected"></path></svg>