<?xml version="1.0" standalone="no"?><!DOCTYPE svg PUBLIC "-//W3C//DTD SVG 1.1//EN" "http://www.w3.org/Graphics/SVG/1.1/DTD/svg11.dtd"><svg t="1675771496947" class="icon" viewBox="0 0 1024 1024" version="1.1" xmlns="http://www.w3.org/2000/svg" p-id="1541" data-spm-anchor-id="a313x.7781069.0.i11" xmlns:xlink="http://www.w3.org/1999/xlink" width="200" height="200"><path d="M820.48 951.04h-614.4c-73.4208 0-133.12-59.6992-133.12-133.12v-614.4c0-73.4208 59.6992-133.12 133.12-133.12h307.2c16.9472 0 30.72 13.7728 30.72 30.72s-13.7728 30.72-30.72 30.72h-307.2c-39.5264 0-71.68 32.1536-71.68 71.68v614.4c0 39.5264 32.1536 71.68 71.68 71.68h614.4c39.5264 0 71.68-32.1536 71.68-71.68v-307.2c0-16.9472 13.7728-30.72 30.72-30.72s30.72 13.7728 30.72 30.72v307.2c0 73.4208-59.7504 133.12-133.12 133.12z" fill="#FBACA3" p-id="1542" data-spm-anchor-id="a313x.7781069.0.i9" class=""></path><path d="M496.0256 700.3136a30.72 30.72 0 0 1-21.7088-52.4288l397.4656-397.4656c12.7488-12.7488 19.7632-29.696 19.7632-47.7184s-7.0144-34.9696-19.7632-47.7184c-12.7488-12.7488-29.696-19.7632-47.7184-19.7632s-34.9696 7.0144-47.7184 19.7632l-399.1552 399.104c-11.9808 11.9808-31.4368 11.9808-43.4688 0a30.72 30.72 0 0 1 0-43.4176l399.1552-399.104c24.3712-24.3712 56.7296-37.7856 91.1872-37.7856s66.816 13.4144 91.1872 37.7856 37.7856 56.7296 37.7856 91.1872-13.4144 66.816-37.7856 91.1872l-397.4656 397.4656a31.21152 31.21152 0 0 1-21.76 8.9088z" fill="#F99057" p-id="1543" data-spm-anchor-id="a313x.7781069.0.i12" class=""></path><path d="M282.5216 766.3616a30.74048 30.74048 0 0 1-29.2864-39.9872l60.3136-190.72c1.4848-4.7104 4.096-8.96 7.5776-12.4416 24.3712-24.3712 56.7296-37.7856 91.1872-37.7856 34.4576 0 66.816 13.4144 91.1872 37.7856 24.3712 24.3712 37.7856 56.7296 37.7856 91.1872s-13.4144 66.816-37.7856 91.1872c-3.84 3.8912-8.704 6.656-13.9776 7.9872L290.304 765.3888c-2.6112 0.6656-5.2224 0.9728-7.7824 0.9728z m87.0912-204.288l-41.0624 129.8944 136.5504-35.4816c9.5232-11.9296 14.6944-26.5728 14.6944-42.0352 0-18.0224-7.0144-34.9696-19.7632-47.7184-12.7488-12.7488-29.696-19.7632-47.7184-19.7632-15.7696-0.0512-30.6688 5.2736-42.7008 15.104z" fill="#FDDDC3" p-id="1544" data-spm-anchor-id="a313x.7781069.0.i13" class=""></path></svg>