<?xml version="1.0" standalone="no"?><!DOCTYPE svg PUBLIC "-//W3C//DTD SVG 1.1//EN" "http://www.w3.org/Graphics/SVG/1.1/DTD/svg11.dtd"><svg t="1675736741757" class="icon" viewBox="0 0 1024 1024" version="1.1" xmlns="http://www.w3.org/2000/svg" p-id="3766" xmlns:xlink="http://www.w3.org/1999/xlink" width="200" height="200"><path d="M0 0h1024v1024H0z" fill="#FFFFFF" p-id="3767" data-spm-anchor-id="a313x.7781069.0.i9" class=""></path><path d="M114.56 114.56m160 0l501.344 0q160 0 160 160l0 501.344q0 160-160 160l-501.344 0q-160 0-160-160l0-501.344q0-160 160-160Z" fill="#FFF3B2" p-id="3768"></path><path d="M98.464 98.464m160 0l501.344 0q160 0 160 160l0 501.344q0 160-160 160l-501.344 0q-160 0-160-160l0-501.344q0-160 160-160Z" fill="#d81e06" p-id="3769" data-spm-anchor-id="a313x.7781069.0.i8" class="selected"></path><path d="M214.496 213.344m-32 0a32 32 0 1 0 64 0 32 32 0 1 0-64 0Z" fill="#FFF3B2" p-id="3770"></path><path d="M265.728 213.344m-32 0a32 32 0 1 0 64 0 32 32 0 1 0-64 0Z" fill="#FFF3B2" p-id="3771"></path><path d="M316.928 213.344m-32 0a32 32 0 1 0 64 0 32 32 0 1 0-64 0Z" fill="#FFF3B2" p-id="3772"></path><path d="M978.336 304a16 16 0 0 1 15.744 13.12l0.256 2.88v520a154.656 154.656 0 0 1-147.776 154.528l-6.88 0.128H319.68a16 16 0 0 1-2.88-31.744l2.88-0.256h520c65.6 0 119.232-51.52 122.496-116.352l0.16-6.304V320a16 16 0 0 1 16-16z" fill="#d81e06" p-id="3773" data-spm-anchor-id="a313x.7781069.0.i10" class="selected"></path><path d="M311.488 576v-74.688L373.696 576h29.952v-124.8h-29.952v77.76L311.488 451.2h-29.952V576h29.952z m216.64 0v-26.688h-63.968v-22.272h50.528v-26.688h-50.528v-22.272h63.936v-26.88H434.24V576h93.888z m101.984 0l23.232-69.312 23.232 69.312h33.024l53.568-124.8h-34.176l-34.176 76.416-26.688-76.416h-29.568l-26.496 76.416-34.368-76.416h-34.176l53.568 124.8h33.024z" fill="#FFFFFF" p-id="3774"></path></svg>