<?xml version="1.0" standalone="no"?><!DOCTYPE svg PUBLIC "-//W3C//DTD SVG 1.1//EN" "http://www.w3.org/Graphics/SVG/1.1/DTD/svg11.dtd"><svg t="1675756684549" class="icon" viewBox="0 0 1024 1024" version="1.1" xmlns="http://www.w3.org/2000/svg" p-id="34131" xmlns:xlink="http://www.w3.org/1999/xlink" width="200" height="200"><path d="M297.2672 925.0816h-25.6c-61.7472 0-111.7696-50.0224-111.7696-111.7696v-137.3696h249.1392v137.3696c0 61.7472-50.0224 111.7696-111.7696 111.7696z" fill="#7518ED" p-id="34132"></path><path d="M267.0592 925.0816c-59.1872 0-107.1616-47.9744-107.1616-107.1616v-141.9776H374.272v141.9776c0 59.1872-47.9744 107.1616-107.2128 107.1616z" fill="#9539FC" p-id="34133"></path><path d="M635.2896 116.1728L389.8368 264.8064H154.112c-47.7184 0-86.3744 39.0656-86.3744 87.296v265.472c0 48.2304 38.656 87.296 86.3744 87.296h253.5936l234.2912 149.504c60.5184 27.5968 108.6976-8.6016 108.6976-50.8416V181.6064c0-80.896-78.8992-87.6032-115.4048-65.4336z" fill="#EA4606" p-id="34134"></path><path d="M632.7808 162.4064L394.3424 305.4592h-245.248c-44.9024 0-81.3056 36.4032-81.3056 81.3056v247.296c0 44.9024 36.4032 81.3056 81.3056 81.3056h238.848l246.3232 136.96c34.3552 19.0976 76.6464-5.7344 76.6464-45.056V206.6432c-0.0512-40.0896-43.776-64.8704-78.1312-44.2368z" fill="#F56B2E" p-id="34135"></path><path d="M798.976 413.1328c-14.6432-0.7168-28.2112-10.6496-34.1504-26.88-8.2944-22.528 1.2288-48.5888 21.2992-58.2144l90.4704-43.8784c20.0192-9.6256 47.4624-3.2256 58.0096 20.0704 9.9328 21.8624-4.2496 50.0736-24.2688 59.6992L816.0768 409.6a34.6624 34.6624 0 0 1-17.1008 3.5328z" fill="#FF9100" p-id="34136"></path><path d="M800.6144 413.184c-12.8 0-25.1392-7.2192-31.0272-19.5584a34.33984 34.33984 0 0 1 16.1792-45.824l88.9856-42.5984c17.1008-8.192 37.632-0.9728 45.824 16.1792 8.192 17.1008 0.9728 37.632-16.1792 45.824l-88.9856 42.5984c-4.7616 2.304-9.8304 3.3792-14.7968 3.3792z" fill="#FCB423" p-id="34137"></path><path d="M911.2064 541.3376H792.576c-20.4288 0-36.9664-19.3536-36.9664-43.2128s16.5376-43.2128 36.9664-43.2128h118.6304c20.4288 0 36.9664 19.3536 36.9664 43.2128s-16.5888 43.2128-36.9664 43.2128z" fill="#FF9100" p-id="34138"></path><path d="M900.2496 541.3376h-110.336c-18.9952 0-34.3552-15.4112-34.3552-34.3552s15.4112-34.3552 34.3552-34.3552h110.336a34.36032 34.36032 0 0 1 0 68.7104z" fill="#FCB423" p-id="34139"></path><path d="M909.4144 715.264c-11.4176 0-22.016-4.0448-27.3408-6.4512l-94.9248-51.6096a39.9616 39.9616 0 0 1-19.8656-52.8896 39.9616 39.9616 0 0 1 52.8896-19.8656l109.2608 49.5104c20.0704 9.1136 28.0064 32.3584 19.8656 52.8896-6.9632 17.5104-18.8416 28.416-39.8848 28.416z" fill="#FF9100" p-id="34140"></path><path d="M892.1088 710.2976c-4.7616 0-9.5744-0.9728-14.1824-3.072l-94.0032-42.5984c-17.3056-7.8336-24.9344-28.2112-17.1008-45.5168 7.8336-17.3056 28.2112-24.9344 45.5168-17.1008l94.0032 42.5984c17.3056 7.8336 24.9344 28.2112 17.1008 45.5168a34.49856 34.49856 0 0 1-31.3344 20.1728z" fill="#FCB423" p-id="34141"></path><path d="M597.0944 720.7424c-18.9952 0-34.3552-15.4112-34.3552-34.3552V425.0112c0-18.9952 15.4112-34.3552 34.3552-34.3552s34.3552 15.4112 34.3552 34.3552v261.376c0 18.944-15.36 34.3552-34.3552 34.3552z" fill="#EA4606" p-id="34142"></path><path d="M597.0944 684.0832c-18.9952 0-34.3552-15.4112-34.3552-34.3552V388.3008c0-18.9952 15.4112-34.3552 34.3552-34.3552s34.3552 15.4112 34.3552 34.3552v261.376c0 18.9952-15.36 34.4064-34.3552 34.4064z" fill="#FFFFFF" p-id="34143"></path></svg>