<?xml version="1.0" standalone="no"?><!DOCTYPE svg PUBLIC "-//W3C//DTD SVG 1.1//EN" "http://www.w3.org/Graphics/SVG/1.1/DTD/svg11.dtd"><svg t="1675756070273" class="icon" viewBox="0 0 1024 1024" version="1.1" xmlns="http://www.w3.org/2000/svg" p-id="16046" xmlns:xlink="http://www.w3.org/1999/xlink" width="200" height="200"><path d="M937.9 757.9l65.9 245.9L758 937.9c-72.3 41.9-156.3 65.9-246 65.9-271.6 0-491.8-220.1-491.8-491.8C20.2 240.4 240.3 20.2 512 20.2c271.5 0 491.8 220.1 491.8 491.8 0 89.6-24 173.5-65.9 245.9z" fill="#33ABE3" p-id="16047"></path><path d="M1003.8 1024c-1.8 0-3.5-0.2-5.2-0.7l-237.7-63.7c-75.7 42.2-161.5 64.4-248.8 64.4C229.7 1024 0 794.3 0 512S229.7 0 512 0s512 229.7 512 512c0 87.2-22.2 173-64.4 248.7l63.7 237.9c1.9 7-0.1 14.4-5.2 19.5-3.9 3.8-9 5.9-14.3 5.9zM512 40.4C252 40.4 40.4 252 40.4 512S252 983.6 512 983.6c83 0 164.6-21.8 235.9-63.1 4.6-2.7 10.2-3.4 15.4-2l211.9 56.8-56.8-212.1c-1.4-5.2-0.7-10.7 2-15.4 41.3-71.3 63.1-152.8 63.1-235.8C983.6 252 772 40.4 512 40.4z" fill="#403F3F" p-id="16048"></path><path d="M512 512m-357.1 0a357.1 357.1 0 1 0 714.2 0 357.1 357.1 0 1 0-714.2 0Z" fill="#FFFFFF" p-id="16049"></path><path d="M512 889.3C304 889.3 134.7 720 134.7 512S304 134.7 512 134.7 889.3 304 889.3 512 720 889.3 512 889.3z m0-714.1c-185.7 0-336.8 151.1-336.8 336.8S326.3 848.8 512 848.8 848.8 697.7 848.8 512 697.7 175.2 512 175.2z" fill="#403F3F" p-id="16050"></path><path d="M682.7 412.6c0 79.9-55.1 146.9-129.2 165.4v35.7c0 24.1-19.7 43.8-43.8 43.8s-43.8-19.7-43.8-43.8v-74.3c0-24.1 19.7-43.8 43.8-43.8 0.7 0 1.6 0 2.3 0.1v-0.1c45.9 0 83-37.3 83-83 0-45.9-37.1-83-83-83s-83 37.1-83 83h-87.7c0-94.3 76.5-170.7 170.7-170.7 94.2 0 170.7 76.4 170.7 170.7z" fill="#33ABE3" p-id="16051"></path><path d="M509.7 677.6c-35.3 0-64-28.7-64-64v-74.3c0-35.3 28.7-64 64-64h2.3c34.6 0 62.8-28.2 62.8-62.8s-28.2-62.8-62.8-62.8-62.8 28.2-62.8 62.8c0 11.2-9.1 20.2-20.2 20.2h-87.7c-11.2 0-20.2-9-20.2-20.2 0-105.2 85.6-190.9 190.9-190.9s190.9 85.6 190.9 190.9c0 82.4-52.4 154.5-129.2 180.5v20.5c-0.1 35.4-28.8 64.1-64 64.1z m-0.9-161.9c-12.1 0.1-22.7 10.7-22.7 23.7v74.3c0 13 10.6 23.6 23.6 23.6 13 0 23.6-10.6 23.6-23.6V578c0-9.3 6.3-17.4 15.3-19.6 67.1-16.7 113.9-76.6 113.9-145.8 0-83-67.5-150.5-150.5-150.5-76.1 0-139.2 56.8-149.1 130.2h47.9c9.4-47.3 51.2-83 101.2-83 56.9 0 103.2 46.3 103.2 103.2 0 56.1-45.1 102-100.9 103.2-1.8 0.3-3.7 0.3-5.5 0z" fill="#403F3F" p-id="16052"></path><path d="M509.7 756.2m-43.8 0a43.8 43.8 0 1 0 87.6 0 43.8 43.8 0 1 0-87.6 0Z" fill="#33ABE3" p-id="16053"></path><path d="M509.7 820.2c-35.3 0-64-28.7-64-64s28.7-64 64-64 64 28.7 64 64-28.7 64-64 64z m0-87.6c-13 0-23.6 10.6-23.6 23.6s10.6 23.6 23.6 23.6 23.6-10.6 23.6-23.6-10.6-23.6-23.6-23.6z" fill="#403F3F" p-id="16054"></path></svg>