<?xml version="1.0" standalone="no"?><!DOCTYPE svg PUBLIC "-//W3C//DTD SVG 1.1//EN" "http://www.w3.org/Graphics/SVG/1.1/DTD/svg11.dtd"><svg t="1675753845072" class="icon" viewBox="0 0 1024 1024" version="1.1" xmlns="http://www.w3.org/2000/svg" p-id="3477" xmlns:xlink="http://www.w3.org/1999/xlink" width="200" height="200"><path d="M624.137 446.654c-10.171-23.12-24.707-40.587-43.562-52.397-18.851-11.855-40.536-17.76-64.996-17.76-17.416 0-33.49 3.277-48.274 9.822-14.787 6.501-27.487 16.075-38.156 28.578a136.85 136.85 0 0 0-25.25 47.978c-6.155 19.497-9.233 41.33-9.233 65.591 0 49.513 11.56 87.618 34.631 114.265 23.075 26.737 52.249 40.137 87.423 40.137a121.978 121.978 0 0 0 44.652-9.13c-9.228-6.847-20.736-13.74-34.528-20.542-13.798-6.797-23.224-12.15-28.333-15.877a18.357 18.357 0 0 1-7.643-15.825 20.437 20.437 0 0 1 7.349-15.528 23.204 23.204 0 0 1 16.124-6.752c17.813 0 47.678 14.786 89.554 44.556a132.697 132.697 0 0 0 26.841-49.269 227.819 227.819 0 0 0 8.68-65.989c-0.002-31.5-5.11-58.84-15.28-81.858z" fill="#FF943E" p-id="3478"></path><path d="M913.222 770.775a474.588 474.588 0 0 0 76.595-258.787c0-263.48-214.293-477.855-477.779-477.855-263.522 0-477.856 214.375-477.856 477.856 0 263.446 214.334 477.82 477.82 477.86 72.095 0 144.426-16.77 209.35-48.596l152.555 45.848a64.288 64.288 0 0 0 80.182-80.14l-40.867-136.186z m-170.656 4.128a27.662 27.662 0 0 1-21.037 9.382c-6.649 0-14.733-2.136-24.21-6.502-9.476-4.27-20.64-10.567-33.444-18.754-12.848-8.187-26.84-17.812-42.118-28.73-28.385 14.49-63.162 21.684-104.492 21.684-33.438 0-63.406-5.309-89.95-15.978-26.494-10.663-48.774-25.993-66.734-46.042-17.958-20.094-31.552-43.806-40.631-71.446-9.08-27.584-13.645-57.603-13.645-90.048a278.139 278.139 0 0 1 14.235-90.944c9.477-27.588 23.223-51.056 41.233-70.452 18.01-19.4 39.889-34.187 65.69-44.51 25.8-10.265 55.173-15.426 88.02-15.426 44.6 0 82.903 9.028 114.904 27.186a175.549 175.549 0 0 1 72.588 77.152c16.471 33.342 24.66 72.536 24.66 117.54 0 68.271-18.506 122.4-55.47 162.288a492.11 492.11 0 0 0 41.676 25.108c15.08 8.136 25.103 14.586 30.065 19.351 4.814 4.757 7.29 11.51 7.29 20.39 0.002 6.25-2.923 12.45-8.63 18.751z" fill="#FF943E" p-id="3479"></path></svg>