<?xml version="1.0" standalone="no"?><!DOCTYPE svg PUBLIC "-//W3C//DTD SVG 1.1//EN" "http://www.w3.org/Graphics/SVG/1.1/DTD/svg11.dtd"><svg t="1676110418182" class="icon" viewBox="0 0 1024 1024" version="1.1" xmlns="http://www.w3.org/2000/svg" p-id="8081" xmlns:xlink="http://www.w3.org/1999/xlink" width="200" height="200"><path d="M832 480a96 96 0 0 0 96-96V192a96 96 0 0 0-96-96H288v32a333.44 333.44 0 0 0-190.08 269.12A88.32 88.32 0 0 0 96 416v416a96 96 0 0 0 96 96h288a96 96 0 0 0 90.56-64H928v-288h-128a96 96 0 0 0-39.04-77.12c0-6.08 2.24-12.48 3.2-18.88z" fill="#FFFFFF" p-id="8082"></path><path d="M432 432m-304 0a304 304 0 1 0 608 0 304 304 0 1 0-608 0Z" fill="#E9EAEB" p-id="8083"></path><path d="M480 128m64 0l288 0q64 0 64 64l0 192q0 64-64 64l-288 0q-64 0-64-64l0-192q0-64 64-64Z" fill="#A3D4FF" p-id="8084"></path><path d="M832 160a32 32 0 0 1 32 32v192a32 32 0 0 1-32 32h-288a32 32 0 0 1-32-32V192a32 32 0 0 1 32-32h288m0-32h-288a64 64 0 0 0-64 64v192a64 64 0 0 0 64 64h288a64 64 0 0 0 64-64V192a64 64 0 0 0-64-64z" fill="#2A5082" p-id="8085"></path><path d="M864 196.8l-22.4-22.4-119.68 118.08a48.96 48.96 0 0 1-67.84 0l-118.08-118.08-22.4 22.4L604.48 288l-90.88 91.2 22.4 22.4 91.2-90.88 4.48 4.16a79.68 79.68 0 0 0 112.64 0l4.48-4.16 91.2 90.88 22.4-22.4L771.52 288zM256 224H224v32h32V224zM320 224H288v32h32V224zM448 224h-96v32h96V224zM352 128h-32v32h32V128zM416 128h-32v32h32V128zM544 128h-96v32h96V128z" fill="#2A5082" p-id="8086"></path><path d="M768 832m-64 0l-288 0q-64 0-64-64l0-192q0-64 64-64l288 0q64 0 64 64l0 192q0 64-64 64Z" fill="#A3D4FF" p-id="8087"></path><path d="M704 544a32 32 0 0 1 32 32v192a32 32 0 0 1-32 32h-288a32 32 0 0 1-32-32v-192a32 32 0 0 1 32-32h288m0-32h-288a64 64 0 0 0-64 64v192a64 64 0 0 0 64 64h288a64 64 0 0 0 64-64v-192a64 64 0 0 0-64-64z" fill="#2A5082" p-id="8088"></path><path d="M385.6 580.8l22.4-22.4 118.08 118.08a48.96 48.96 0 0 0 67.84 0l118.08-118.08 22.4 22.4L643.52 672 736 763.2l-22.4 22.4-92.8-90.88-4.48 4.16a79.68 79.68 0 0 1-112.64 0l-4.48-4.16-91.2 90.88-22.4-22.4L476.48 672zM896 608h-32v32h32v-32zM832 608h-32v32h32v-32zM896 704h-32v32h32v-32zM800 800h-32v32h32v-32zM832 704h-64v32h64v-32zM896 800h-64v32h64v-32z" fill="#2A5082" p-id="8089"></path><path d="M128 352m64 0l288 0q64 0 64 64l0 416q0 64-64 64l-288 0q-64 0-64-64l0-416q0-64 64-64Z" fill="#FFFFFF" p-id="8090"></path><path d="M480 384a32 32 0 0 1 32 32v416a32 32 0 0 1-32 32H192a32 32 0 0 1-32-32V416a32 32 0 0 1 32-32h288m0-32H192a64 64 0 0 0-64 64v416a64 64 0 0 0 64 64h288a64 64 0 0 0 64-64V416a64 64 0 0 0-64-64z" fill="#2A5082" p-id="8091"></path><path d="M256 480H192v32h64v-32zM256 576H192v32h64v-32zM256 672H192v32h64v-32zM480 480H288v32h192v-32zM480 576H288v32h192v-32zM480 672H288v32h192v-32z" fill="#2A5082" p-id="8092"></path></svg>