<?xml version="1.0" standalone="no"?><!DOCTYPE svg PUBLIC "-//W3C//DTD SVG 1.1//EN" "http://www.w3.org/Graphics/SVG/1.1/DTD/svg11.dtd"><svg t="1675750553234" class="icon" viewBox="0 0 1024 1024" version="1.1" xmlns="http://www.w3.org/2000/svg" p-id="7664" xmlns:xlink="http://www.w3.org/1999/xlink" width="200" height="200"><path d="M672 356.266667m-42.666667 0a42.666667 42.666667 0 1 0 85.333334 0 42.666667 42.666667 0 1 0-85.333334 0Z" fill="#008EFE" p-id="7665"></path><path d="M477.866667 972.8c-8.533333 0-17.066667-4.266667-23.466667-8.533333L64 571.733333c-12.8-12.8-12.8-32 0-44.8L465.066667 125.866667c6.4-6.4 14.933333-8.533333 23.466666-8.533334h390.4c17.066667 0 32 14.933333 32 32v396.8c0 8.533333-4.266667 17.066667-8.533333 23.466667L501.333333 962.133333c-6.4 6.4-14.933333 10.666667-23.466666 10.666667zM132.266667 548.266667l345.6 345.6 366.933333-362.666667V181.333333H499.2L132.266667 548.266667z" fill="#F86402" p-id="7666"></path><path d="M618.666667 825.6c-8.533333 0-17.066667-2.133333-23.466667-8.533333l-384-384c-12.8-12.8-12.8-32 0-44.8 12.8-12.8 32-12.8 44.8 0l384 384c12.8 12.8 12.8 32 0 44.8-4.266667 4.266667-12.8 8.533333-21.333333 8.533333z" fill="#008CFF" p-id="7667"></path><path d="M618.666667 825.6c8.533333 0 17.066667-2.133333 23.466666-8.533333 12.8-12.8 12.8-32 0-44.8l-19.2-19.2-44.8 44.8 19.2 19.2c6.4 4.266667 14.933333 8.533333 21.333334 8.533333zM258.133333 386.133333c-12.8-12.8-32-12.8-44.8 0-12.8 12.8-12.8 32 0 44.8l19.2 19.2L277.333333 405.333333l-19.2-19.2z" fill="#003700" p-id="7668"></path></svg>