<?xml version="1.0" standalone="no"?><!DOCTYPE svg PUBLIC "-//W3C//DTD SVG 1.1//EN" "http://www.w3.org/Graphics/SVG/1.1/DTD/svg11.dtd"><svg t="1677049067227" class="icon" viewBox="0 0 1024 1024" version="1.1" xmlns="http://www.w3.org/2000/svg" p-id="25927" xmlns:xlink="http://www.w3.org/1999/xlink" width="200" height="200"><path d="M350.5 823.3s-113.4 26.7-78.2 74.6c22.7 30.8 148 33.7 199.6 5.7 13.6-7.4 38.5-25.2 38.5-67.2s-159.9-13.1-159.9-13.1zM670.4 823.3s113.4 26.7 78.2 74.6c-22.7 30.8-148 33.7-199.6 5.7-13.6-7.4-38.5-25.2-38.5-67.2s159.9-13.1 159.9-13.1z" fill="#FFB94D" p-id="25928"></path><path d="M268.5 446.9s-119.3 160.7-86.2 281.7c0 0 20.7 107.7 86.2-54.7 0 0 24 174.8 239.4 194.7 0 0 200.5-8.3 241.1-194.7 0 0 59.7 157.4 81.2 54.7 0 0 40.6-121.8-84.5-281.7 0 0 24-340.5-237.8-351.3 0.1 0.1-236.9-20.7-239.4 351.3z" p-id="25929"></path><path d="M489.9 256.6c0 40.4-22.1 78.7-49.3 78.7-27.3 0-49.3-38.4-49.3-78.7s22.1-67.4 49.3-67.4c27.3 0 49.3 27 49.3 67.4z" fill="#FFFFFF" p-id="25930"></path><path d="M422.3 271.5c0 12.9 10.5 23.4 23.4 23.4s23.4-10.5 23.4-23.4-10.5-23.4-23.4-23.4-23.4 10.5-23.4 23.4z" p-id="25931"></path><path d="M530.9 256.6c0 40.4 22.1 78.7 49.3 78.7 27.3 0 49.3-38.4 49.3-78.7s-22.1-67.4-49.3-67.4c-27.2 0-49.3 27-49.3 67.4z" fill="#FFFFFF" p-id="25932"></path><path d="M575.2 256.7c11.4 0 21 8.2 22.9 19.1 0.2-1.3 0.4-2.8 0.4-4.2 0-12.9-10.4-23.4-23.4-23.4-12.9 0-23.4 10.4-23.4 23.4 0 1.4 0.1 2.9 0.4 4.2 2.1-10.9 11.7-19.1 23.1-19.1z" p-id="25933"></path><path d="M400.3 351.5s55.5-16.9 110-15.8c0 0 102.5-0.2 143.6 31.3 0 0 22.7 13.1 0 28.9 0 0-60 50.6-143.5 56.5 0 0-37.7 3.1-95.6-26.6 0 0-34.7-16.1-51.4-33.1 0-0.1-30.5-21.3 36.9-41.2z" fill="#FFB94D" p-id="25934"></path><path d="M300.4 490.7s156.7-31.2 416.9 0v166.9s-2.1 80.8-66.6 144.9c0 0-43.5 58.7-141.7 59.9 0 0-71.9 6.3-138.7-57.2 0 0-60.5-50.3-69-148.4l-0.9-166.1z" fill="#FFFFFF" p-id="25935"></path><path d="M348.8 524.5l4 230.2 80.8 32V498.5z" fill="#0071BC" p-id="25936"></path><path d="M410.04 636.407l9.562-11.166 2.734 2.342-9.56 11.166zM414.772 643.948l6.829-7.975 2.734 2.341-6.829 7.976z" fill="#F5D8A3" p-id="25937"></path><path d="M402.646 633.156l2.342-2.735 8.583 7.35-2.341 2.734zM417.424 628.043l2.434-2.652 8.325 7.641-2.435 2.652zM408.505 626.893l7.35-8.583 2.734 2.341-7.35 8.584z" fill="#F5D8A3" p-id="25938"></path><path d="M407.43 627.402l2.433-2.654 12.24 11.215-2.433 2.654z" fill="#F5D8A3" p-id="25939"></path><path d="M414.9 576.6L393 553.2l1 12.5-6.8-7 0.9 11.2 9.6 10.5 1 12.5-2.3 2.7-21.8-22.2-9.1 12 1 12.5 9.1-12 5.5 5.8s1.4 2.4 0.4 5l-13.6 18.6 1 12.5 5.8-6.7s1.2-1.3 2.6 1.1l6.9 8.2 1.4 18.7-6.8 9.3s-1.2 1.3-2.5 0.2l-5.5-5.8 1 12.5 16.4 17.5 0.4 5-4.6 5.4s-1.2 1.3-2.5 0.2l-8.3-9.4 0.9 11.2 9.5 9.3s1.3 1.2 2.5-0.2l16.9-25.1s1.2-1.3 2.5-0.2l1.3 1.2s1.3 1.2 0.2 2.5l-17 23.9 0.6 7.5 31.5-46.4s1.1-2.6-0.3-3.7l-16.3-16.3-2.5-32.4 12.5-17.3s1.2-1.3 2.6 1.1l8.3 9.4-0.8-10-8.2-8.2s-4.1-4.7-0.6-7.5l8.3 9.4-0.7-8.7-9.6-10.5 0.1 3.6z" fill="#C1272D" p-id="25940"></path><path d="M364.52 734.405l10.464-10.465 10.466 10.465-10.466 10.465z" fill="#FFFFFF" p-id="25941"></path><path d="M403.524 719.411l10.465-10.465 10.465 10.465-10.465 10.465z" fill="#C1272D" p-id="25942"></path><path d="M257.5 450.5s208.2 56.3 512.4 0l32 84.4s-288.2 70.3-576.4 0l32-84.4z" fill="#0071BC" p-id="25943"></path><path d="M322.93 480.482l2.945-2.07 8.456 12.024-2.944 2.07zM333.718 481.12l2.944-2.07 6.041 8.589-2.945 2.07z" fill="#F5D8A3" p-id="25944"></path><path d="M324.323 495.905l9.243-6.5 2.071 2.944-9.243 6.501zM323.138 480.274l9.462-6.178 1.968 3.015-9.461 6.177zM315.288 482.453l2.945-2.071 6.5 9.243-2.944 2.071z" fill="#F5D8A3" p-id="25945"></path><path d="M320.076 489.846l13.893-9.087 1.97 3.013-13.892 9.086z" fill="#F5D8A3" p-id="25946"></path><path d="M274.6 472.9l-28.1 15.4 12.3 2.1-8.5 4.9 11.1 1.9 12.6-6.7 12.3 2.1 2 2.9-26.8 15.6 9.4 11.8 12.3 2.1-9.4-11.8 7-3.9s2.7-0.8 4.9 0.9l14.7 17.8 12.3 2.1-5.1-7.2s-1-1.4 1.7-2.3l9.7-4.7 18.5 3.2 7.3 8.9s1 1.4-0.4 2.5l-7 3.9 12.3 2.1 21.1-11.6 4.9 0.9 4.1 5.8s1 1.4-0.4 2.5l-11.1 5.7 11.1 1.9 11.4-6.9s1.4-1 0.4-2.5L371 510s-1-1.4 0.4-2.5l1.4-1s1.4-1 2.5 0.4l19 22.3 7.4 1.3-37.1-42s-2.3-1.7-3.7-0.6L341 499.7l-32-5.6-13.7-16.3s-1-1.4 1.7-2.3l11.1-5.7-9.9-1.7-9.9 5.9s-5.6 2.8-7.4-1.3L292 467l-8.6-1.5-12.6 6.7 3.8 0.7z" fill="#C1272D" p-id="25947"></path><path d="M509.54 505.766l9.449-11.26 2.758 2.314-9.45 11.26zM501.286 502.3l6.749-8.043 2.758 2.314-6.75 8.043z" fill="#C1272D" p-id="25948"></path><path d="M507.982 507.507l2.314-2.758 8.656 7.264-2.315 2.758zM510.447 492.3l2.217-2.836 8.903 6.961-2.218 2.836zM519.076 505.675l7.263-8.655 2.758 2.314-7.264 8.656z" fill="#C1272D" p-id="25949"></path><path d="M508.416 498.788l2.22-2.834 13.07 10.235-2.22 2.835z" fill="#C1272D" p-id="25950"></path><path d="M570.4 493.4l26.7 17.8-12.5 1.1 8 5.6-11.2 1-12-7.7-12.5 1.1-2.3 2.7 25.4 17.9-10.3 11-12.5 1.1 10.3-11-6.7-4.4s-2.6-1-5 0.4l-16.1 16.5-12.5 1.1 5.7-6.8s1.1-1.4-1.5-2.4l-9.3-5.5-18.7 1.6-8.1 8.2s-1.1 1.4 0.2 2.5l6.7 4.4-12.5 1.1-20-13.3-5 0.4-4.5 5.4s-1.1 1.4 0.2 2.5l10.6 6.6-11.2 1-10.7-7.9s-1.4-1.1-0.2-2.5l22-20.8s1.1-1.4-0.2-2.5l-1.4-1.1s-1.4-1.1-2.5 0.2L446 539.4l-7.5 0.7 40.6-38.7s2.4-1.5 3.7-0.3l18.8 13.4 32.4-2.8 15-15.1s1.1-1.4-1.5-2.4l-10.6-6.6 10-0.9 9.4 6.7s5.3 3.3 7.5-0.7l-10.6-6.6 8.7-0.8 12 7.7-3.5 0.4z" fill="#FFB94D" p-id="25951"></path><path d="M420.838 501.934l10.465-10.465 10.465 10.465-10.465 10.465z" fill="#C1272D" p-id="25952"></path><path d="M400.302 543.293l10.466-10.465 10.465 10.465-10.465 10.465z" fill="#FFFFFF" p-id="25953"></path><path d="M607.33 543.476l10.465-10.465 10.465 10.465-10.465 10.465z" fill="#C1272D" p-id="25954"></path><path d="M591.323 495.413l10.465-10.465 10.465 10.465-10.465 10.465z" fill="#FFFFFF" p-id="25955"></path><path d="M699.93 484.503l2.229-2.828 11.546 9.097-2.227 2.827zM710.626 481.995l2.228-2.827 8.248 6.497-2.228 2.828z" fill="#F5D8A3" p-id="25956"></path><path d="M705.843 498.92l6.993-8.876 2.827 2.227-6.992 8.877zM700.215 484.218l7.294-8.63 2.749 2.324-7.294 8.63zM693.197 488.551l2.228-2.827 8.876 6.992-2.228 2.828z" fill="#F5D8A3" p-id="25957"></path><path d="M699.998 494.288l10.705-12.688 2.751 2.322-10.705 12.687z" fill="#F5D8A3" p-id="25958"></path><path d="M651.6 491.1L629.1 514l12.4-1.5-6.7 7.1 11.2-1.3 10.1-10 12.4-1.5 2.8 2.2-21.2 22.7 12.4 8.6 12.4-1.5-12.4-8.6 5.6-5.7s2.3-1.5 5-0.6l19.2 12.8 12.4-1.5-6.9-5.5s-1.4-1.1 0.9-2.6l8-7.2 18.6-2.2 9.6 6.4s1.4 1.1 0.3 2.5l-5.6 5.7 12.4-1.5 16.9-17.1 5-0.6 5.6 4.4s1.4 1.1 0.3 2.5l-9.1 8.6 11.2-1.3 8.9-9.9s1.1-1.4-0.3-2.5l-25.8-15.8s-1.4-1.1-0.3-2.5l1.1-1.4s1.1-1.4 2.5-0.3l24.6 16 7.5-0.9-47.6-29.6s-2.6-0.9-3.7 0.4l-15.6 17-32.3 3.8-17.8-11.7s-1.4-1.1 0.9-2.6l9.1-8.6-9.9 1.2-7.8 8.5s-4.5 4.3-7.5 0.9l9.1-8.6-8.7 1-10.1 10 3.4-0.6z" fill="#C1272D" p-id="25959"></path></svg>